# xmcd CD database file
#
# Track frame offsets:
#	182
#	15840
#	27090
#	46452
#	64830
#	76590
#	91617
#	112852
#	122022
#	132370
#	146207
#	159422
#	168450
#	181852
#
# Disc length: 2752 seconds
#
# Revision: 10
# Processed by: cddbd v1.4PL0 Copyright (c) Steve Scherf et al.
# Submitted via: CDex 1.40Release
#
DISCID=a20abe0e
DTITLE=Steve Earle - The Mountain
DYEAR=1999
DGENRE=Country
TTITLE0=Texas Eagle
TTITLE1=Yours Forever Blue
TTITLE2=Carrie Brown
TTITLE3=I'm Still In Love With You
TTITLE4=The Graveyard Shift
TTITLE5=Harlan Man
TTITLE6=The Mountain
TTITLE7=Outlaw's Honeymoon
TTITLE8=Connemara Breakdown
TTITLE9=Leroy's Dustbowl Blues
TTITLE10=Dixieland
TTITLE11=Paddy On The Beat
TTITLE12=Long, Lonesome, Highway, Blues
TTITLE13=Pilgrim
EXTD=YEAR: 1999 ID3G: 2
EXTT0=
EXTT1=
EXTT2=
EXTT3=
EXTT4=
EXTT5=
EXTT6=
EXTT7=
EXTT8=
EXTT9=
EXTT10=
EXTT11=
EXTT12=
EXTT13=
PLAYORDER=
